<?xml version="1.0" encoding="UTF-8"?>
<!-- Generator: visioncortex VTracer 0.6.12 -->
<svg version="1.1" xmlns="http://www.w3.org/2000/svg" width="1254" height="1254">
<path d="M0 0 C413.82 0 827.64 0 1254 0 C1254 413.82 1254 827.64 1254 1254 C840.18 1254 426.36 1254 0 1254 C0 840.18 0 426.36 0 0 Z " fill="#F7F1E5" transform="translate(0,0)"/>
<path d="M0 0 C1.666 -0 3.332 -0.003 4.999 -0.007 C9.517 -0.012 14.034 0.008 18.552 0.032 C23.374 0.053 28.196 0.051 33.018 0.053 C42.308 0.059 51.597 0.087 60.886 0.123 C68.354 0.151 75.822 0.171 83.29 0.185 C84.347 0.187 85.405 0.189 86.494 0.191 C88.631 0.195 90.767 0.199 92.904 0.203 C116.8 0.248 140.696 0.337 164.591 0.445 C168.986 0.465 173.38 0.484 177.775 0.503 C196.078 0.58 214.381 0.678 232.684 0.819 C236.095 0.845 239.507 0.868 242.918 0.89 C248.177 0.927 253.436 0.973 258.694 1.028 C260.545 1.046 262.395 1.061 264.246 1.073 C307.753 1.371 355.072 10.907 391.12 36.47 C391.555 36.77 391.555 36.77 393.76 38.29 C422.806 58.788 450.505 89.947 460.338 124.9 C461.12 127.47 461.12 127.47 462.526 130.638 C464.547 135.252 465.816 140.051 467.12 144.907 C467.25 145.391 467.25 145.391 467.911 147.84 C471.869 162.783 474.23 177.556 474.358 193.032 C474.368 194.014 474.377 194.996 474.387 196.007 C474.412 199.161 474.425 202.315 474.432 205.47 C474.435 206.545 474.437 207.62 474.44 208.728 C474.444 225.034 473.607 240.494 470.12 256.47 C469.847 257.928 469.579 259.386 469.315 260.845 C464.469 285.881 453.238 311.907 438.12 332.47 C437.385 333.488 436.65 334.507 435.893 335.556 C426.508 348.309 415.754 359.898 403.12 369.47 C402.201 370.205 401.281 370.94 400.334 371.697 C387.166 382.012 372.468 389.027 357.12 395.47 C356.571 395.707 356.571 395.707 353.795 396.904 C344.204 400.846 334.206 403.176 324.12 405.47 C323.43 405.627 322.741 405.785 322.031 405.947 C306.366 409.46 290.895 410.769 274.895 410.757 C273.25 410.763 271.605 410.77 269.961 410.778 C266.458 410.793 262.956 410.801 259.454 410.805 C253.91 410.812 248.365 410.834 242.821 410.858 C230.067 410.911 217.312 410.945 204.557 410.978 C192.831 411.009 181.105 411.043 169.378 411.094 C163.872 411.117 158.366 411.131 152.859 411.138 C149.436 411.144 146.012 411.158 142.589 411.174 C141.007 411.18 139.425 411.182 137.844 411.181 C119.242 411.171 119.242 411.171 114.061 414.986 C113.606 415.558 113.151 416.13 112.682 416.72 C112.209 417.282 111.736 417.844 111.249 418.423 C108.915 422.654 108.993 427.564 108.968 432.301 C108.96 433.442 108.951 434.583 108.943 435.758 C108.941 436.377 108.941 436.377 108.93 439.509 C108.917 441.526 108.905 443.544 108.892 445.562 C108.879 447.723 108.869 449.885 108.859 452.046 C108.839 456.561 108.811 461.075 108.783 465.589 C108.723 475.174 108.671 484.76 108.62 494.345 C108.564 504.688 108.508 515.03 108.442 525.373 C108.414 529.855 108.39 534.337 108.37 538.819 C108.36 540.939 108.348 543.059 108.334 545.179 C108.318 547.756 108.305 550.333 108.296 552.911 C108.154 572.473 102.465 589.007 89.096 603.693 C75.555 616.756 57.105 620.616 38.866 620.638 C37.888 620.641 36.91 620.645 35.902 620.648 C33.837 620.653 31.772 620.655 29.707 620.655 C26.591 620.657 23.476 620.676 20.36 620.695 C0.157 620.753 -17.396 619.412 -33.88 606.47 C-34.493 606.045 -35.105 605.619 -35.736 605.181 C-47.735 596.23 -53.064 580.564 -55.88 566.47 C-56.823 559.098 -56.682 551.684 -56.622 544.266 C-56.627 542.097 -56.634 539.929 -56.644 537.76 C-56.663 531.858 -56.645 525.956 -56.621 520.053 C-56.601 513.666 -56.616 507.279 -56.626 500.892 C-56.64 489.841 -56.631 478.791 -56.606 467.741 C-56.581 456.152 -56.566 444.563 -56.566 432.974 C-56.566 432.251 -56.566 431.528 -56.567 430.783 C-56.567 427.848 -56.567 424.912 -56.567 421.977 C-56.57 394.485 -56.54 366.994 -56.494 339.502 C-56.453 315.103 -56.434 290.704 -56.436 266.304 C-56.436 264.737 -56.437 263.169 -56.437 261.601 C-56.437 260.826 -56.437 260.051 -56.437 259.253 C-56.437 255.351 -56.437 251.449 -56.438 247.547 C-56.438 246.777 -56.438 246.007 -56.438 245.214 C-56.439 224.792 -56.425 204.369 -56.407 183.947 C-56.406 183.22 -56.405 182.494 -56.405 181.745 C-56.402 178.823 -56.399 175.9 -56.397 172.978 C-56.387 162.832 -56.383 152.685 -56.381 142.538 C-56.379 129.464 -56.367 116.39 -56.338 103.316 C-56.324 97.015 -56.315 90.715 -56.319 84.414 C-56.322 78.642 -56.311 72.87 -56.29 67.098 C-56.284 65.015 -56.284 62.932 -56.289 60.849 C-56.327 43.808 -55.911 26.922 -43.63 13.657 C-31.07 2.194 -16.372 -0.141 0 0 Z " fill="#A0A691" transform="translate(441.88037109375,387.530029296875)"/>
<path d="M0 0 C7.264 3.064 12.407 8.627 18 14 C18.255 14.241 18.255 14.241 19.542 15.46 C27.04 22.573 33.554 30.153 39.782 38.393 C41.56 40.739 43.375 43.056 45.188 45.375 C46.125 46.583 47.063 47.791 48 49 C48.721 48.859 49.442 48.717 50.185 48.571 C59.266 46.966 68.081 46.692 77.282 46.739 C79.733 46.75 82.182 46.739 84.633 46.727 C95.221 46.719 105.517 47.523 116 49 C116.28 48.403 116.561 47.805 116.85 47.19 C125.983 29.804 148.878 7.706 167 0 C171.235 -0.549 173.378 -0.348 177.125 1.75 C190.063 14.103 191.586 43.915 192.535 60.793 C192.635 62.392 192.735 63.992 192.836 65.591 C193.035 68.763 193.18 71.932 193.295 75.108 C193.875 86.218 196.63 91.495 204 100 C205.644 102.56 207.011 105.19 208.312 107.938 C208.476 108.276 208.476 108.276 209.303 109.991 C221.663 136.274 222.069 167.28 213.707 194.758 C212.985 198.07 212.83 199.839 214 203 C215.602 204.668 215.602 204.668 217.625 206.188 C226.346 213.375 232.409 223.758 234 235 C234.954 246.377 233.248 255.44 229 266 C225.025 266 224.148 264.659 221.188 262.062 C203.065 246.901 181.965 237.383 159.724 229.918 C158.065 229.359 156.41 228.786 154.764 228.189 C147.876 225.733 140.787 224.359 133.625 222.938 C132.394 222.682 131.163 222.426 129.895 222.162 C113.149 218.808 96.485 217.697 79.438 217.586 C77.488 217.567 75.538 217.547 73.589 217.527 C68.2 217.474 62.811 217.434 57.423 217.398 C53.975 217.375 50.527 217.349 47.08 217.322 C29.11 217.187 11.139 217.098 -6.832 217.022 C-11.35 217.003 -15.869 216.983 -20.387 216.962 C-44.398 216.855 -68.409 216.771 -92.421 216.727 C-94.557 216.723 -96.693 216.719 -98.83 216.715 C-99.886 216.713 -100.942 216.711 -102.03 216.709 C-109.493 216.694 -116.956 216.669 -124.419 216.641 C-133.631 216.605 -142.843 216.585 -152.054 216.582 C-156.828 216.58 -161.601 216.572 -166.374 216.547 C-170.803 216.523 -175.231 216.519 -179.66 216.529 C-181.265 216.53 -182.871 216.524 -184.476 216.51 C-198.999 216.391 -213.482 218.642 -224.289 229.246 C-227.397 232.687 -230.243 236.274 -233 240 C-239.625 218.358 -240.747 193.979 -235 172 C-234.698 170.795 -234.397 169.589 -234.086 168.348 C-225.073 134.602 -204.125 107.501 -174 90 C-173.153 89.477 -172.306 88.953 -171.434 88.414 C-137.905 68.58 -91.419 68.466 -54.568 77.876 C-47.339 79.786 -40.156 81.835 -33 84 C-32.944 83.187 -32.888 82.375 -32.83 81.538 C-32.583 78.022 -32.3 74.511 -32 71 C-31.941 70.304 -31.882 69.608 -31.821 68.892 C-30.458 53.521 -27.115 39.228 -22.562 24.5 C-22.286 23.592 -22.01 22.684 -21.726 21.749 C-18.453 11.488 -13.294 -2.933 0 0 Z " fill="#F1E1CA" transform="translate(624,172)"/>
<path d="M0 0 C0.442 -0.002 0.442 -0.002 2.679 -0.01 C5.592 -0.02 8.505 -0.022 11.417 -0.023 C13.465 -0.026 15.512 -0.029 17.559 -0.033 C21.854 -0.039 26.15 -0.041 30.445 -0.04 C35.89 -0.04 41.335 -0.054 46.779 -0.071 C51.014 -0.082 55.25 -0.084 59.485 -0.083 C61.488 -0.085 63.491 -0.089 65.495 -0.097 C96.974 -0.208 129.55 2.423 153.785 24.927 C171.165 43.074 175.442 65.068 175.191 89.262 C174.843 102.023 171.539 113.679 165.91 125.145 C165.453 126.106 164.997 127.066 164.527 128.055 C155.399 145.463 139.337 157.062 120.91 163.145 C110.87 166.241 101.753 167.296 91.286 167.322 C90.134 167.329 88.982 167.335 87.795 167.342 C83.999 167.362 80.202 167.374 76.406 167.384 C75.107 167.388 73.808 167.392 72.469 167.396 C66.309 167.415 60.148 167.429 53.988 167.438 C46.892 167.447 39.795 167.474 32.699 167.514 C26.538 167.548 20.377 167.56 14.216 167.564 C11.6 167.569 8.984 167.58 6.368 167.599 C2.713 167.623 -0.941 167.622 -4.596 167.615 C-5.677 167.628 -6.757 167.641 -7.87 167.654 C-13.952 167.612 -17.436 167.163 -22.09 163.145 C-22.668 162.65 -23.245 162.155 -23.84 161.645 C-26.851 158.033 -27.342 155.007 -27.351 150.358 C-27.358 149.177 -27.365 147.995 -27.372 146.777 C-27.37 145.484 -27.368 144.191 -27.365 142.859 C-27.369 141.481 -27.375 140.102 -27.38 138.724 C-27.394 134.982 -27.394 131.24 -27.392 127.498 C-27.391 124.372 -27.396 121.246 -27.401 118.12 C-27.412 110.742 -27.412 103.364 -27.406 95.986 C-27.4 88.383 -27.412 80.779 -27.434 73.175 C-27.451 66.642 -27.457 60.108 -27.454 53.575 C-27.452 49.675 -27.455 45.775 -27.469 41.876 C-27.481 38.206 -27.479 34.536 -27.466 30.866 C-27.463 28.884 -27.474 26.902 -27.486 24.92 C-27.439 16.907 -27.072 11.5 -21.59 5.333 C-15.076 -0.367 -8.233 -0.005 0 0 Z " fill="#F7F1E5" transform="translate(577.09033203125,509.854736328125)"/>
<path d="M0 0 C4.857 3.986 8.989 8.438 10.852 14.52 C11.898 25.274 10.792 33.54 4.227 42.27 C-0.922 47.888 -8.782 51.098 -16.148 52.52 C-18.055 52.566 -19.964 52.578 -21.871 52.562 C-22.86 52.556 -23.849 52.55 -24.867 52.544 C-25.244 52.54 -25.244 52.54 -27.148 52.52 C-27.141 52.905 -27.141 52.905 -27.101 54.859 C-27.039 58.35 -26.999 61.841 -26.961 65.332 C-26.936 66.547 -26.911 67.762 -26.885 69.014 C-26.88 69.595 -26.88 69.595 -26.855 72.539 C-26.848 73.076 -26.848 73.076 -26.808 75.792 C-27.148 78.52 -27.148 78.52 -28.448 80.37 C-31.303 82.3 -33.824 81.876 -37.148 81.52 C-39.023 80.52 -39.023 80.52 -40.148 78.52 C-40.935 73.366 -41.284 68.377 -41.325 63.157 C-41.332 62.47 -41.339 61.783 -41.345 61.075 C-41.365 58.832 -41.377 56.59 -41.387 54.348 C-41.391 53.577 -41.395 52.806 -41.399 52.011 C-41.42 47.941 -41.434 43.871 -41.444 39.801 C-41.455 35.602 -41.489 31.404 -41.529 27.205 C-41.555 23.968 -41.563 20.73 -41.567 17.492 C-41.572 15.944 -41.583 14.395 -41.602 12.847 C-41.626 10.686 -41.625 8.526 -41.618 6.364 C-41.624 5.136 -41.63 3.908 -41.636 2.642 C-41.056 -1.069 -40.075 -2.21 -37.148 -4.48 C-25.531 -9.358 -10.213 -6.956 0 0 Z " fill="#857667" transform="translate(355.1484375,1049.48046875)"/>
<path d="M0 0 C1.7 1.054 1.7 1.054 3 3 C3.262 5.588 3.35 7.929 3.293 10.512 C3.289 11.24 3.284 11.968 3.28 12.718 C3.263 15.042 3.226 17.364 3.188 19.688 C3.172 21.264 3.159 22.84 3.146 24.416 C3.113 28.278 3.062 32.139 3 36 C3.66 36 4.32 36 5 36 C5.226 35.465 5.451 34.93 5.684 34.379 C7.426 31.229 9.712 28.64 12.062 25.938 C13.058 24.778 14.053 23.618 15.047 22.457 C15.295 22.167 15.295 22.167 16.553 20.702 C18.676 18.206 20.745 15.667 22.812 13.125 C33.376 0.177 33.376 0.177 37.875 -0.312 C41 0 41 0 43.438 1.562 C45 4 45 4 45.188 7.312 C43.826 11.539 42.28 13.08 39.082 16.004 C35.877 19.077 33.204 22.547 30.422 26 C27.793 29.257 25.122 32.476 22.438 35.688 C22.217 35.952 22.217 35.952 21.098 37.292 C20.066 38.528 19.033 39.764 18 41 C19.99 43.675 21.992 46.339 24 49 C24.541 49.721 25.083 50.441 25.641 51.184 C32.372 60.007 39.549 68.925 48.801 75.227 C50.5 76.438 50.5 76.438 53 79 C53 82.688 53 82.688 52 86 C50 88 50 88 46.5 88.625 C40.257 88.445 36.347 84.05 32 80 C31.184 79.252 30.368 78.505 29.527 77.734 C21.796 70.334 14.937 61.906 9 53 C5.125 54.875 5.125 54.875 4 56 C3.89 58.183 3.844 60.369 3.824 62.555 C3.801 63.905 3.777 65.255 3.752 66.605 C3.717 68.741 3.687 70.876 3.674 73.011 C3.659 75.068 3.618 77.123 3.574 79.18 C3.56 80.414 3.545 81.649 3.53 82.921 C3 86 3 86 1.12 87.899 C-1.557 89.289 -3.022 89.521 -6 89 C-8.125 87.469 -8.125 87.469 -10 85 C-10.39 82.222 -10.538 79.842 -10.502 77.066 C-10.507 76.271 -10.513 75.475 -10.518 74.655 C-10.531 72.029 -10.514 69.404 -10.496 66.777 C-10.496 64.952 -10.498 63.126 -10.501 61.301 C-10.502 57.477 -10.489 53.653 -10.467 49.829 C-10.438 44.924 -10.441 40.019 -10.454 35.114 C-10.461 31.345 -10.453 27.576 -10.44 23.808 C-10.436 21.999 -10.436 20.19 -10.439 18.381 C-10.442 15.855 -10.426 13.33 -10.404 10.804 C-10.409 10.055 -10.413 9.305 -10.418 8.533 C-10.376 5.606 -10.341 3.512 -8.693 1.036 C-5.807 -0.729 -3.274 -0.351 0 0 Z " fill="#857667" transform="translate(559,1043)"/>
<path d="M0 0 C3.25 0.875 3.25 0.875 4.25 1.875 C4.383 3.487 4.453 5.105 4.496 6.723 C4.529 7.721 4.562 8.719 4.596 9.748 C4.656 11.847 4.713 13.946 4.768 16.045 C4.999 22.856 5.401 29.177 8.5 35.375 C10.25 36.875 10.25 36.875 13.188 37.438 C16.25 36.875 16.25 36.875 18.5 34.75 C22.974 27.399 22.58 20.1 22.553 11.754 C22.705 4.48 22.705 4.48 25.633 1.227 C28.576 -0.293 30.001 -0.791 33.25 -0.125 C35.374 1.213 35.374 1.213 37.25 3.875 C37.845 7.568 37.762 11.232 37.711 14.965 C37.71 15.513 37.71 15.513 37.708 18.285 C37.702 20.607 37.686 22.93 37.662 25.252 C37.625 28.768 37.621 32.283 37.621 35.799 C37.579 49.152 37.422 62.061 33.25 74.875 C32.59 74.875 31.93 74.875 31.25 74.875 C31.044 75.597 30.837 76.319 30.625 77.062 C28.508 81.392 25.213 83.944 20.887 85.996 C15.87 87.668 10.213 87.848 5.156 86.188 C0.353 83.66 -3.33 79.716 -5.75 74.875 C-6.062 71.938 -6.062 71.938 -5.75 68.875 C-3.739 66.641 -2.262 66.01 0.625 65.25 C3.798 66.005 4.198 66.843 6.125 69.375 C8.502 72.389 8.896 72.802 12.875 73.625 C16.25 72.875 16.25 72.875 18.562 70.75 C21.564 65.636 22.515 60.881 22.875 55 C22.95 53.848 23.025 52.695 23.102 51.508 C23.151 50.639 23.2 49.77 23.25 48.875 C22.26 49.535 21.27 50.195 20.25 50.875 C14.171 51.524 8.302 51.811 2.688 49.25 C-7.368 39.452 -8.949 30.318 -9.125 16.875 C-9.162 15.795 -9.2 14.715 -9.238 13.602 C-9.326 5.695 -9.326 5.695 -6.461 1.617 C-3.75 -0.125 -3.75 -0.125 0 0 Z " fill="#867869" transform="translate(726.75,1076.125)"/>
<path d="M0 0 C3.493 2.544 6.658 5.228 9.711 8.281 C9.998 10.309 9.998 10.309 10.055 12.789 C10.084 13.694 10.114 14.599 10.145 15.531 C10.166 16.48 10.188 17.429 10.211 18.406 C10.588 34.322 10.588 34.322 14.219 39.383 C14.752 39.886 15.286 40.388 15.836 40.906 C18.129 43.368 18.673 44.085 19.336 47.531 C18.711 50.281 18.711 50.281 17.148 52.156 C13.565 53.81 11.626 54.011 7.711 53.281 C5.016 50.875 2.846 48.188 0.711 45.281 C0.18 45.691 -0.351 46.101 -0.898 46.523 C-1.605 47.062 -2.311 47.601 -3.039 48.156 C-3.735 48.69 -4.431 49.224 -5.148 49.773 C-11.003 53.897 -16.229 54.039 -23.289 53.281 C-28.85 50.652 -33.054 46.296 -35.402 40.562 C-37.969 31.065 -37.218 20.83 -32.98 11.98 C-25.804 0.528 -13.265 -6.932 0 0 Z " fill="#847667" transform="translate(887.2890625,1077.71875)"/>
<path d="M0 0 C6.321 4.348 11.075 10.978 12.562 18.562 C13.498 28.477 11.751 36.499 6.438 44.938 C-0.019 50.833 -6.045 53.008 -14.688 53.125 C-15.361 53.14 -16.034 53.154 -16.728 53.169 C-22.737 53.046 -26.122 50.662 -30.449 46.738 C-36.58 39.922 -39.061 33.306 -38.719 24.105 C-37.662 14.552 -33.849 7.754 -26.938 1.188 C-19.007 -3.967 -8.303 -4.535 0 0 Z " fill="#857767" transform="translate(458.4375,1078.4375)"/>
<path d="M0 0 C8.445 -0.458 15.227 2.357 21.609 7.816 C24.594 10.567 25.919 11.992 26.359 16.129 C26.047 19.191 26.047 19.191 24.422 21.066 C21.216 22.585 19.571 22.813 16.047 22.191 C14.055 20.794 12.324 19.279 10.562 17.602 C7.471 14.725 4.547 14.79 0.488 14.855 C-5.431 15.67 -9.571 19.393 -13.266 23.879 C-19.796 33.506 -20.161 44.905 -18.953 56.191 C-17.366 62.875 -14.408 68.652 -8.785 72.785 C-3.257 75.53 3.061 75.029 9.047 74.191 C11.328 72.848 12.784 71.478 14.562 69.539 C16.047 68.191 16.047 68.191 19.797 67.629 C23.047 68.191 23.047 68.191 24.984 69.254 C26.799 72.564 26.728 74.477 26.047 78.191 C21.385 84.395 14.465 87.567 7.047 89.191 C-4.007 90.654 -12.165 88.292 -21.043 81.621 C-29.627 73.844 -33.708 62.974 -34.289 51.613 C-34.606 35.163 -31.148 21.544 -19.578 9.316 C-13.749 3.763 -8.009 0.785 0 0 Z " fill="#867768" transform="translate(812.953125,1042.80859375)"/>
<path d="M0 0 C3.375 0.875 3.375 0.875 5.375 2.875 C6.045 9.523 5.24 16.28 4.375 22.875 C5.267 22.84 6.159 22.805 7.078 22.77 C8.249 22.742 9.419 22.715 10.625 22.688 C11.205 22.67 11.205 22.67 14.141 22.582 C17.637 22.899 19.024 23.293 21.375 25.875 C21.903 28.636 21.561 31.039 21.375 33.875 C17.633 36.325 13.933 36.106 9.625 36 C8.928 35.991 8.23 35.982 7.512 35.973 C5.799 35.949 4.087 35.913 2.375 35.875 C2.485 39.584 2.616 43.292 2.75 47 C2.781 48.047 2.812 49.093 2.844 50.172 C3.324 62.824 3.324 62.824 6.375 65.875 C9.25 66.125 9.25 66.125 12.375 65.875 C13.395 64.896 14.396 63.896 15.375 62.875 C18.662 62.285 19.949 62.595 22.75 64.438 C24.375 66.875 24.375 66.875 24.5 70.312 C23.065 74.856 21.318 76.271 17.375 78.875 C12.824 80.953 8.317 81.659 3.375 80.875 C-2.548 77.913 -7.288 73.158 -9.789 67.016 C-11.318 61.147 -10.832 54.95 -10.75 48.938 C-10.741 47.681 -10.732 46.425 -10.723 45.131 C-10.699 42.045 -10.666 38.96 -10.625 35.875 C-10.932 35.892 -10.932 35.892 -12.488 35.98 C-13.297 36.008 -14.105 36.035 -14.938 36.062 C-15.338 36.08 -15.338 36.08 -17.363 36.168 C-19.625 35.875 -19.625 35.875 -21.391 34.547 C-23.326 31.925 -23.076 30.034 -22.625 26.875 C-21.188 24.5 -21.188 24.5 -18.625 22.875 C-16.406 22.716 -16.406 22.716 -13.965 22.773 C-13.559 22.781 -13.559 22.781 -11.504 22.818 C-11.194 22.827 -11.194 22.827 -9.625 22.875 C-9.585 22.32 -9.546 21.766 -9.505 21.194 C-9.314 18.669 -9.095 16.148 -8.875 13.625 C-8.813 12.752 -8.751 11.88 -8.688 10.98 C-8.326 7.038 -8.094 4.538 -5.773 1.258 C-3.625 -0.125 -3.625 -0.125 0 0 Z " fill="#857768" transform="translate(681.625,1051.125)"/>
<path d="M0 0 C2.812 0.938 2.812 0.938 4.812 2.938 C5.398 9.945 4.9 17.004 3.812 23.938 C4.373 23.92 4.373 23.92 7.207 23.832 C8.68 23.804 10.152 23.777 11.625 23.75 C12.363 23.725 13.101 23.7 13.861 23.674 C19.307 23.6 19.307 23.6 21.797 25.262 C23.416 27.933 23.256 29.898 22.812 32.938 C20.263 35.764 18.769 35.941 14.922 36.23 C13.468 36.211 12.015 36.175 10.562 36.125 C9.817 36.111 9.072 36.098 8.305 36.084 C6.474 36.049 4.643 35.995 2.812 35.938 C2.894 39.626 3.007 43.313 3.125 47 C3.148 48.038 3.17 49.077 3.193 50.146 C3.403 56.136 3.999 60.619 6.812 65.938 C11.459 66.254 13.204 65.731 16.812 62.938 C19.658 62.521 21.136 62.541 23.625 64 C25.537 67.12 25.305 69.364 24.812 72.938 C21.549 77.289 17.948 79.284 12.812 80.938 C6.456 81.644 2.119 80.542 -3.188 76.938 C-8.955 71.325 -10.369 64.803 -10.48 57.031 C-10.461 54.5 -10.425 51.968 -10.375 49.438 C-10.361 48.138 -10.348 46.839 -10.334 45.5 C-10.299 42.312 -10.25 39.125 -10.188 35.938 C-10.495 35.955 -10.495 35.955 -12.051 36.043 C-12.859 36.07 -13.667 36.097 -14.5 36.125 C-14.9 36.142 -14.9 36.142 -16.926 36.23 C-19.188 35.938 -19.188 35.938 -20.949 34.609 C-22.188 32.938 -22.188 32.938 -22.688 30 C-22.188 26.938 -22.188 26.938 -20.188 24.562 C-17.187 22.937 -16.246 22.749 -13 22.836 C-11.742 22.869 -10.484 22.903 -9.188 22.938 C-9.18 22.317 -9.18 22.317 -9.145 19.176 C-9.098 17.534 -9.049 15.892 -9 14.25 C-8.994 13.433 -8.988 12.617 -8.982 11.775 C-8.823 7.39 -8.574 5.444 -5.836 1.852 C-3.188 -0.062 -3.188 -0.062 0 0 Z " fill="#857768" transform="translate(500.1875,1051.0625)"/>
<path d="M0 0 C2 2 2 2 2.23 4.25 C2.132 10.549 1.76 16.745 1 23 C2.132 22.977 3.264 22.954 4.43 22.93 C5.911 22.911 7.393 22.893 8.875 22.875 C9.621 22.858 10.368 22.841 11.137 22.824 C13.092 22.807 15.047 22.897 17 23 C19 25 19 25 19.375 28.438 C19 32 19 32 17.461 33.711 C14.077 35.484 10.968 35.325 7.25 35.188 C6.553 35.174 5.855 35.16 5.137 35.146 C3.424 35.111 1.712 35.057 0 35 C0.11 39.251 0.241 43.5 0.375 47.75 C0.406 48.957 0.437 50.163 0.469 51.406 C0.507 52.566 0.546 53.727 0.586 54.922 C0.602 55.456 0.602 55.456 0.681 58.159 C0.992 60.929 1.577 62.633 3 65 C5.812 65.188 5.812 65.188 9 65 C9.495 64.505 9.99 64.01 10.5 63.5 C12 62 12 62 15 61.625 C18 62 18 62 19.875 63.062 C21.696 66.199 21.489 68.453 21 72 C17.362 76.678 13.738 78.64 7.914 79.406 C-2.07 79.691 -2.07 79.691 -6.062 76.625 C-12.133 70.283 -14.145 61.002 -14.098 52.48 C-14.094 51.459 -14.091 50.437 -14.088 49.385 C-14.08 48.33 -14.071 47.275 -14.062 46.188 C-14.058 45.113 -14.053 44.039 -14.049 42.932 C-14.037 40.288 -14.021 37.644 -14 35 C-16.018 35.035 -18.036 35.069 -20.055 35.104 C-22 35 -22 35 -24 33.938 C-25.603 30.831 -25.428 28.42 -25 25 C-23.562 23.062 -23.562 23.062 -21 22 C-17.982 21.771 -15.02 21.826 -12 22 C-12.023 21.143 -12.046 20.286 -12.07 19.402 C-12.284 5.847 -12.284 5.847 -8.812 0 C-5.778 -1.674 -3.251 -0.768 0 0 Z " fill="#877869" transform="translate(933,1052)"/>
<path d="M0 0 C3.326 0.665 4.383 1.882 6.5 4.5 C6.961 7.06 6.961 7.06 6.906 9.984 C6.897 11.082 6.887 12.18 6.876 13.312 C6.861 13.903 6.861 13.903 6.785 16.895 C6.772 18.115 6.76 19.336 6.746 20.594 C6.704 24.5 6.636 28.406 6.562 32.312 C6.494 36.208 6.432 40.103 6.389 43.999 C6.362 46.423 6.32 48.848 6.263 51.271 C6.189 57.498 6.469 62.008 9.5 67.5 C10.187 67.537 10.874 67.575 11.582 67.613 C12.483 67.679 13.384 67.745 14.312 67.812 C15.206 67.871 16.099 67.929 17.02 67.988 C19.853 68.573 20.851 69.143 22.5 71.5 C22.391 77.603 22.391 77.603 19.832 80.18 C15.098 82.86 9.731 82.368 4.5 81.5 C-1.429 78.388 -4.533 73.749 -6.5 67.5 C-7.84 62.51 -7.644 57.498 -7.633 52.371 C-7.634 51.386 -7.635 50.4 -7.636 49.385 C-7.636 47.299 -7.635 45.214 -7.63 43.129 C-7.625 39.973 -7.63 36.818 -7.637 33.662 C-7.654 5.884 -7.654 5.884 -4.61 2.232 C-2.5 0.5 -2.5 0.5 0 0 Z " fill="#857667" transform="translate(388.5,1049.5)"/>
<path d="M0 0 C16.862 0 16.862 0 21.547 4.359 C24.521 7.717 25.842 9.807 26.438 14.312 C25.723 20.332 23.828 24.49 19.125 28.375 C11.994 32.083 8.734 32 0 32 C0 21.44 0 10.88 0 0 Z " fill="#F4EEE1" transform="translate(327,1057)"/>
<path d="M0 0 C2.216 1.601 2.911 2.488 3.381 5.201 C3.383 6.056 3.386 6.91 3.388 7.791 C3.398 8.762 3.407 9.733 3.417 10.734 C3.411 11.781 3.405 12.828 3.398 13.906 C3.4 14.444 3.4 14.444 3.407 17.168 C3.409 19.444 3.404 21.72 3.391 23.997 C3.375 27.486 3.391 30.975 3.41 34.465 C3.408 36.674 3.404 38.884 3.398 41.094 C3.401 41.617 3.401 41.617 3.417 44.266 C3.407 45.237 3.398 46.208 3.388 47.209 C3.386 48.064 3.383 48.919 3.381 49.799 C2.914 52.499 2.183 53.384 0 55 C-3.394 55.506 -5.229 55.483 -8.16 53.647 C-11.082 49.444 -10.551 45.213 -10.496 40.215 C-10.498 39.162 -10.499 38.11 -10.501 37.025 C-10.499 34.802 -10.487 32.578 -10.467 30.355 C-10.438 26.947 -10.446 23.54 -10.459 20.131 C-10.453 17.971 -10.444 15.812 -10.434 13.652 C-10.437 12.63 -10.439 11.609 -10.442 10.556 C-10.43 9.608 -10.417 8.66 -10.404 7.683 C-10.399 6.849 -10.393 6.015 -10.388 5.156 C-9.347 -0.633 -5.1 -0.546 0 0 Z " fill="#857666" transform="translate(640,1076)"/>
<path d="M0 0 C4.55 1.905 6.777 4.636 9 9 C9.665 14.892 8.85 19.763 6 25 C3.714 27.771 2.169 28.798 -1.371 29.41 C-5.912 29.673 -8.255 29.543 -12 26.812 C-15.2 22.312 -16.526 18.762 -16.387 13.125 C-15.503 8.271 -12.427 4.522 -9.125 1 C-5.931 -0.503 -3.483 -0.367 0 0 Z " fill="#F5EFE3" transform="translate(449,1089)"/>
<path d="M0 0 C2 2 2 2 2.082 4.793 C1.333 14.23 -0.298 20.274 -6 28 C-8.709 29.354 -11.009 29.065 -14 29 C-17.336 23.718 -17.845 19.073 -17 13 C-14.155 4.205 -9.523 -1.093 0 0 Z " fill="#F4EEE2" transform="translate(881,1089)"/>
<path d="M0 0 C3.624 1.647 6.129 3.454 8 7 C8.545 11.996 8.099 15.015 5 19 C2.456 21.837 0.244 22.274 -3.438 22.5 C-7.144 22.384 -7.902 22.075 -11 19.688 C-14.128 15.484 -14.525 12.162 -14 7 C-10.36 0.901 -6.945 -0.471 0 0 Z " fill="#4D3E30" transform="translate(655,295)"/>
<path d="M0 0 C3.582 0.057 5.646 0.511 8.375 2.875 C11.191 6.176 11.514 9.075 11.207 13.32 C10.659 16.263 9.748 18.156 7.812 20.438 C3.61 22.955 -0.404 23.374 -5.188 22.438 C-8.673 19.734 -9.835 18.266 -10.66 13.988 C-10.934 9.287 -10.749 7.142 -7.75 3.375 C-6.904 2.736 -6.059 2.096 -5.188 1.438 C-3.638 -0.112 -2.151 0.119 0 0 Z " fill="#4D3E31" transform="translate(755.1875,294.5625)"/>
<path d="M0 0 C0.829 4.235 0.619 6.059 -1.793 9.727 C-6.224 14.997 -6.224 14.997 -9 17 C-13.071 17.149 -14.559 16.396 -17.59 13.672 C-18.365 12.708 -19.139 11.743 -19.938 10.75 C-20.73 9.796 -21.523 8.842 -22.34 7.859 C-24 5 -24 5 -23.879 2.266 C-23 0 -23 0 -21 -2 C-13.585 -4.247 -6.788 -3.466 0 0 Z " fill="#514233" transform="translate(715,325)"/>
<path d="M0 0 C8.606 0.053 17.07 1.38 25.517 2.896 C30.666 3.816 35.796 4.466 41 5 C41.382 6.656 41.714 8.325 42 10 C41 11 41 11 37.473 11.219 C30.055 11.136 22.739 9.701 15.438 8.5 C13.937 8.258 12.436 8.018 10.936 7.777 C7.289 7.192 3.644 6.599 0 6 C-0.382 4.344 -0.714 2.675 -1 1 C-0.67 0.67 -0.34 0.34 0 0 Z " fill="#817261" transform="translate(584,324)"/>
<path d="M0 0 C0.165 0.66 0.165 0.66 1 4 C-5.746 6.77 -12.636 8.562 -19.719 10.272 C-21.696 10.752 -23.669 11.249 -25.643 11.746 C-26.899 12.052 -28.155 12.357 -29.449 12.672 C-30.587 12.951 -31.725 13.231 -32.897 13.519 C-35.977 13.996 -38.022 13.83 -41 13 C-41 11.68 -41 10.36 -41 9 C-34.44 5.788 -27.609 4.362 -20.5 2.812 C-19.302 2.54 -18.105 2.267 -16.871 1.986 C-11.155 0.723 -5.861 -0.388 0 0 Z " fill="#7A6C5D" transform="translate(625,345)"/>
<path d="M0 0 C0.165 0.825 0.165 0.825 1 5 C-5.75 7.064 -12.51 8.025 -19.498 8.915 C-21.628 9.188 -23.755 9.475 -25.883 9.764 C-27.247 9.941 -28.612 10.117 -29.977 10.293 C-31.205 10.453 -32.433 10.613 -33.698 10.778 C-36.747 10.983 -39.063 10.775 -42 10 C-41.67 8.35 -41.34 6.7 -41 5 C-36.126 4.282 -31.251 3.571 -26.376 2.864 C-24.719 2.623 -23.063 2.38 -21.406 2.136 C-19.019 1.785 -16.631 1.439 -14.242 1.094 C-13.508 0.984 -12.773 0.875 -12.016 0.762 C-7.976 0.185 -4.08 -0.112 0 0 Z " fill="#7F7061" transform="translate(822,324)"/>
<path d="M0 0 C5.77 -0.284 10.533 0.731 16.062 2.312 C23.998 4.498 31.927 6.38 40 8 C40.165 8.825 40.165 8.825 41 13 C36.496 14.331 32.867 13.546 28.434 12.418 C27.718 12.244 27.002 12.069 26.264 11.89 C24.756 11.521 23.249 11.146 21.743 10.767 C19.444 10.189 17.142 9.628 14.838 9.068 C13.37 8.707 11.901 8.344 10.434 7.98 C9.748 7.813 9.063 7.645 8.356 7.472 C5.024 6.628 1.994 5.709 -1 4 C-0.67 2.68 -0.34 1.36 0 0 Z " fill="#796A5B" transform="translate(781,345)"/>
<path d="M0 0 C2.875 1.625 2.875 1.625 5 4 C5.625 6.938 5.625 6.938 5 10 C2.519 13.357 1.056 14.784 -3.062 15.625 C-6 15 -6 15 -8.375 12.875 C-10.281 9.503 -10.649 7.81 -10 4 C-7.209 -0.079 -4.823 -0.787 0 0 Z " fill="#887A6A" transform="translate(639,1051)"/>
<path d="M0 0 C6.115 -0.097 11.933 0.23 18 1 C18.33 2.65 18.66 4.3 19 6 C13.874 6.103 9.05 6.036 4 5 C4 4.01 4 3.02 4 2 C2.68 1.34 1.36 0.68 0 0 Z " fill="#716151" transform="translate(607,328)"/>
<path d="M0 0 C0.33 1.32 0.66 2.64 1 4 C-2.83 5.802 -5.781 6.196 -10 6 C-10.66 4.68 -11.32 3.36 -12 2 C-7.879 0.002 -4.548 -0.178 0 0 Z " fill="#726456" transform="translate(625,345)"/>
<path d="M0 0 C-0.495 0.495 -0.495 0.495 -3 3 C-1.35 3.33 0.3 3.66 2 4 C-1.825 6.391 -5.597 6.56 -10 7 C-10.66 5.68 -11.32 4.36 -12 3 C-7.895 0.015 -5.023 -0.295 0 0 Z " fill="#7A6C5D" transform="translate(595,352)"/>
<path d="M0 0 C2.31 0 4.62 0 7 0 C7 0.66 7 1.32 7 2 C9.64 2 12.28 2 15 2 C9.498 5.668 3.395 5.128 -3 5 C-2.01 4.67 -1.02 4.34 0 4 C0 2.68 0 1.36 0 0 Z " fill="#736355" transform="translate(800,327)"/>
<path d="M0 0 C-3.825 2.391 -7.597 2.56 -12 3 C-12.33 2.34 -12.66 1.68 -13 1 C-4.571 -1.429 -4.571 -1.429 0 0 Z " fill="#867767" transform="translate(597,356)"/>
<path d="M0 0 C0.33 0 0.66 0 1 0 C0.859 1.625 0.712 3.25 0.562 4.875 C0.481 5.78 0.4 6.685 0.316 7.617 C0 10 0 10 -1 12 C-1.66 12 -2.32 12 -3 12 C-2.492 7.682 -1.803 3.967 0 0 Z " fill="#E8E1D4" transform="translate(749,1132)"/>
<path d="M0 0 C2.31 0 4.62 0 7 0 C7.33 1.32 7.66 2.64 8 4 C5.69 3.67 3.38 3.34 1 3 C0.67 2.01 0.34 1.02 0 0 Z " fill="#7E6F60" transform="translate(618,345)"/>
<path d="M0 0 C0.33 1.32 0.66 2.64 1 4 C-1.31 4 -3.62 4 -6 4 C-4 1 -4 1 -1.875 0.312 C-1.256 0.209 -0.638 0.106 0 0 Z " fill="#766759" transform="translate(822,325)"/>
<path d="M0 0 C0.33 0.66 0.66 1.32 1 2 C0.34 2 -0.32 2 -1 2 C-1.247 2.639 -1.495 3.279 -1.75 3.938 C-3 6 -3 6 -5.125 6.75 C-5.434 6.791 -5.434 6.791 -7 7 C-2.25 1.125 -2.25 1.125 0 0 Z " fill="#F1E9DB" transform="translate(807,1059)"/>
<path d="M0 0 C0.66 0 1.32 0 2 0 C0.707 2.884 -0.659 4.872 -3 7 C-3.66 6.67 -4.32 6.34 -5 6 C-3.384 3.959 -1.714 1.959 0 0 Z " fill="#8D8072" transform="translate(587,1050)"/>
</svg>
